<svg id="_0479_data_maintenance_1" xmlns="http://www.w3.org/2000/svg" xmlns:xlink="http://www.w3.org/1999/xlink" viewBox="0 0 500 500" data-imageid="data-maintenance-1-40" imageName="Data Maintenance 1" class="illustrations_image" style="width: 183px;"><defs><style>.cls-1_data-maintenance-1-40{fill:#020202;opacity:.1;}.cls-1_data-maintenance-1-40,.cls-2_data-maintenance-1-40,.cls-3_data-maintenance-1-40,.cls-4_data-maintenance-1-40,.cls-5_data-maintenance-1-40,.cls-6_data-maintenance-1-40,.cls-7_data-maintenance-1-40,.cls-8_data-maintenance-1-40,.cls-9_data-maintenance-1-40,.cls-10_data-maintenance-1-40,.cls-11_data-maintenance-1-40,.cls-12_data-maintenance-1-40{stroke-width:0px;}.cls-1_data-maintenance-1-40,.cls-3_data-maintenance-1-40{isolation:isolate;}.cls-2_data-maintenance-1-40{fill:url(#linear-gradient);}.cls-3_data-maintenance-1-40{opacity:.18;}.cls-3_data-maintenance-1-40,.cls-12_data-maintenance-1-40{fill:#68e1fd;}.cls-4_data-maintenance-1-40{fill:url(#linear-gradient-4-data-maintenance-1-40);}.cls-5_data-maintenance-1-40{fill:url(#linear-gradient-2-data-maintenance-1-40);}.cls-6_data-maintenance-1-40{fill:url(#linear-gradient-3-data-maintenance-1-40);}.cls-7_data-maintenance-1-40{fill:#231f20;}.cls-8_data-maintenance-1-40{fill:#e0a194;}.cls-9_data-maintenance-1-40{fill:#c14834;}.cls-10_data-maintenance-1-40{fill:#fff;}.cls-11_data-maintenance-1-40{fill:#ffb4a3;}</style><linearGradient id="linear-gradient-data-maintenance-1-40" x1="474.76" y1="3066.9" x2="319.89" y2="2963.95" gradientTransform="translate(-1268.04 2897.07) rotate(24.41) scale(1 -1)" gradientUnits="userSpaceOnUse"><stop offset="0" stop-color="#231f20"/><stop offset=".13" stop-color="#231f20" stop-opacity=".69"/><stop offset=".25" stop-color="#231f20" stop-opacity=".32"/><stop offset="1" stop-color="#231f20" stop-opacity="0"/></linearGradient><linearGradient id="linear-gradient-2-data-maintenance-1-40" x1="300.95" y1="3080.43" x2="285.21" y2="3282.94" gradientTransform="translate(-54.72 3337.66) scale(1 -1)" xlink:href="#linear-gradient-data-maintenance-1-40"/><linearGradient id="linear-gradient-3-data-maintenance-1-40" x1="144.83" y1="3189.46" x2="322.25" y2="3271.99" gradientTransform="translate(-54.72 3337.66) scale(1 -1)" xlink:href="#linear-gradient-data-maintenance-1-40"/><linearGradient id="linear-gradient-4-data-maintenance-1-40" x1="119.39" y1="3058.86" x2="201.01" y2="3035.32" gradientTransform="translate(-54.72 3337.66) scale(1 -1)" xlink:href="#linear-gradient-data-maintenance-1-40"/></defs><g id="background_data-maintenance-1-40"><path class="cls-3_data-maintenance-1-40 targetColor" d="M301.93,41.87c-15.32-7.26-32.51-9.67-49.46-10.29-39.41-1.44-82.76,8.61-106.41,40.19-8.19,10.93-13.45,23.71-19.46,35.97-12.9,26.31-29.49,50.64-49.25,72.28-13.13,14.37-27.66,27.52-39.41,43.07C10.76,259.19.77,308.61,15.4,351.4c14.63,42.79,55.01,76.51,100.08,79.84,27.04,2,53.66-6.23,80.51-10.03,59.51-8.42,119.66,4.98,179.63,9.19,22.32,1.56,45.77,1.64,65.75-8.43,35.6-17.93,49.3-62.23,50.18-102.1,2.07-94.87-48.2-176.95-124.8-228.94-22.34-15.19-40.16-37.35-64.84-49.06Z" style="fill: rgb(154, 224, 211);"/></g><g id="character_2_data-maintenance-1-40"><path class="cls-9_data-maintenance-1-40" d="M381.86,251.1c1.52-2.19,3.88-3.65,6.52-4.04,5.26-.75,9.47,3.05,11.59,7.53,1.27,2.62,1.91,5.61,3.89,7.73,1.69,1.82,4.11,2.73,6.36,3.75,5.38,2.4,10.5,5.77,13.79,10.64,1.04,1.36,1.66,3,1.78,4.72,0,2.45-1.64,4.73-1.46,7.18.2,2.75,2.54,4.78,3.75,7.26,1.62,3.7.89,8-1.84,10.97-2.81,2.86-6.85,4.17-10.81,3.51-3.92-.71-7.43-2.89-9.8-6.09-5.09-6.6-5.4-16.34-11.7-21.75-1.7-1.46-3.89-2.68-4.56-4.84-.48-1.51-.08-3.14-.14-4.73-.16-2.74-1.71-5.21-4.12-6.53-3.75-2.01-8.2-1.16-9.14-6.56-.44-2.35.69-4.72,2.8-5.85.52-.18,1.02-.42,1.49-.7.53-.5.97-1.09,1.27-1.75.1-.15.21-.29.33-.43Z"/><path class="cls-10_data-maintenance-1-40" d="M345,274.28c.06-.02.12-.06.17-.1l-.48.1h.32Z"/><path class="cls-11_data-maintenance-1-40" d="M334.16,370.9c-.38,1.84-1.16,3.58-2.29,5.09-1.28,1.3-2.93,2.19-4.73,2.54-3.91.95-8.03.35-11.51-1.67-.48-.23-.87-.61-1.11-1.09-.12-.38-.12-.8,0-1.18.79-2,2.31-3.62,4.25-4.55,1.92-.92,3.67-2.15,5.19-3.65,2.54-3.05,3.57-12.62,9.76-9.54,5.23,2.61,1.54,10.23.43,14.05Z"/><path class="cls-7_data-maintenance-1-40" d="M376.19,332.04c-4.94-1.76-9.98-3.22-15.09-4.36-8.98-1.98-15.89-.51-21.32,7.22-4.97,7.06-9.98,14.21-13.09,22.27-.74,1.89-1.35,4.04-.53,5.91,1.2,2.75,5.09,3.41,7.78,2.17,2.7-1.23,4.63-3.81,6.46-6.14,3.11-4.04,9.01-14.19,14.3-13.51,7.06.89,13.45,6.66,20.21,8.79.68.3,1.46.3,2.15,0,.51-.29,5.09.84,5.3.31,2.21-5.16-.53-12.29.37-17.8.15-.55.15-1.14,0-1.69-.42-.74-1.13-1.28-1.96-1.49-1.55-.57-3.03-1.14-4.58-1.68Z"/><path class="cls-12_data-maintenance-1-40 targetColor" d="M333.52,377.38s.37,2.54-1.11,3.59c-1.47,1.04-15.04,5.48-21.51-2.38-6.47-7.86,12.38-4,12.38-4l10.23,2.8Z" style="fill: rgb(154, 224, 211);"/><path class="cls-10_data-maintenance-1-40" d="M334.37,371.93c-.65-.55-1.6-.55-2.25,0-2.02,1.4-4.61,1.66-6.87.7-2.43-1.27-2.73-4.49-4-4.82s-9.57,3.81-10.56,6.23c-.99,2.42,2.03,5.09,5.85,6.36,3.81,1.27,13.23.67,15.4-.95s3.03-6,2.44-7.51Z"/><path class="cls-11_data-maintenance-1-40" d="M349.29,392.87c.33,1.84.26,3.73-.2,5.54-.66,1.74-1.84,3.23-3.38,4.27-3.25,2.36-7.29,3.37-11.28,2.82-.54-.01-1.05-.23-1.44-.6-.25-.31-.39-.69-.41-1.09-.02-2.15.76-4.23,2.2-5.84,1.43-1.57,2.59-3.38,3.42-5.34,1.27-3.81-1.47-13.04,5.42-12.52,5.77.38,5.24,8.79,5.67,12.75Z"/><path class="cls-7_data-maintenance-1-40" d="M373.44,340.99c-5.23.25-10.45.83-15.61,1.72-9.06,1.56-14.9,5.56-17,14.76-1.91,8.43-3.81,16.95-3.66,25.58,0,2.03.29,4.26,1.74,5.67,2.16,2.1,5.98,1.27,8.03-.93,2.06-2.2,2.85-5.25,3.65-8.14,1.35-4.92,2.95-16.53,8.11-17.94,8.73-2.35,17.86,3.03,26.39-.44,3.05-1.13,5.94-2.64,8.61-4.5,2.69-1.86,4.74-4.5,5.89-7.56.52-1.65.79-3.36.8-5.09.09-1.4.03-2.81-.17-4.21-.29-1.6-.57-1.42-2.2-1.39-2.76,0-5.5.32-8.25.62-5.44.69-10.86,1.58-16.34,1.84Z"/><path class="cls-12_data-maintenance-1-40 targetColor" d="M351.17,399.13s1.27,2.19.33,3.73c-.94,1.54-11.85,10.78-20.81,5.98-8.96-4.81,9.94-8.4,9.94-8.4l10.54-1.3Z" style="fill: rgb(154, 224, 211);"/><path class="cls-10_data-maintenance-1-40" d="M349.88,393.79c-.81-.26-1.7.11-2.07.88-1.33,2.06-3.62,3.29-6.08,3.25-2.72-.24-4.23-3.11-5.54-2.94s-7.41,7.16-7.41,9.76,3.81,3.95,7.81,3.62c3.99-.33,12.5-4.4,13.88-6.73s.57-6.7-.58-7.86Z"/><path class="cls-10_data-maintenance-1-40" d="M351.24,308.21c.13,2.12.81,3.98,2.66,4.59.16.06.32.11.48.14,3.39.67,7.86-1.91,10.97-4.17,1.29-.94,2.53-1.95,3.71-3.03v-22.77l-16.53,16.95c-.87,2.68-1.31,5.47-1.3,8.29Z"/><path class="cls-10_data-maintenance-1-40" d="M337.45,302.33c2.17,3.08,4.86,5.76,7.95,7.92,2.22,1.51,4.79,2.43,7.46,2.68.35.03.71-.01,1.04-.13.57-.17,1.08-.51,1.44-.99,1.12-1.33,1.79-2.98,1.92-4.72.18-4.54-4.73-7.17-4.73-7.17,0,0-11.2-3.57-12.52-2.99-.74.32-1.42,1.88-1.91,3.25-.39,1.14-.65,2.14-.65,2.14Z"/><path class="cls-1_data-maintenance-1-40" d="M337.45,302.33c2.17,3.08,4.86,5.76,7.95,7.92,2.22,1.51,4.79,2.43,7.46,2.68.35.03.71-.01,1.04-.13.16.06.32.11.48.14,3.39.67,7.86-1.91,10.97-4.17v-.08l-1.06-6.8c-2.04,2.1-4.41,3.86-7.02,5.2-1.84.99-3.94,1.38-6.01,1.12-.56-.09-1.1-.26-1.61-.5-4.16-2-8.03-4.53-11.53-7.53-.42,1.14-.67,2.14-.67,2.14Z"/><path class="cls-11_data-maintenance-1-40" d="M341.32,291.06c.78.73,1.31,1.69,1.53,2.73.02.53-.05,1.06-.19,1.56-.1.48-.26.95-.47,1.39-.32.51-.72.96-1.18,1.33l-1.06.98c-.13.13-.29.23-.46.31-.37.08-.75-.08-.94-.41-.18-.32-.29-.68-.33-1.04-.32-1.93-1.47-5.09-.93-7.02.65-2.26,2.99-1.02,4.03.17Z"/><path class="cls-10_data-maintenance-1-40" d="M365.23,308.7c0,1.06-.13,2.15-.13,3.22,0,5.89,1.36,11.95-.39,17.71-.57,1.23-.75,2.61-.5,3.94.51,1.06,1.39,1.9,2.47,2.36,5.19,2.84,11.18,3.7,17.02,4.53,4.4.61,10.64,1.92,14.71-.44,1.73-1.02,2.31-2.89,2.87-4.77,1.77-5.96,2.28-12.38,2.75-18.56.06-.81.11-1.63.17-2.44.33-5.63.46-11.26.34-16.9-.08-4.09-.41-8.51-3.08-11.59-3.55-4.12-10.43-6.84-15.64-7.79-1.67-.34-3.39-.44-5.09-.28-2.44.38-4.79,1.18-6.95,2.35-2.54,1.27-4.89,2.36-6.17,4.93-1.4,2.95-2.38,6.09-2.9,9.32-.47,3.03-.52,6.11-.17,9.15.17,1.49.55,2.97.69,4.45-.03.28-.01.55-.01.81Z"/><path class="cls-1_data-maintenance-1-40" d="M389.18,342.01c1.7.51,5.63-1.06,6.94-1.27.79-.14,1.5-.52,2.28-.71,3.89-.97,4.35-11.91,4.73-14.86,1.02-7.78,2.54-15.84,2.66-23.65.17-3-.18-6.01-1.03-8.9-.89-2.92-3.03-5.29-5.84-6.48-.55-.23-1.15-.29-1.73-.19-2.38.61-2.87,4.53-3.27,6.42-.62,2.91-1.67,5.92-4.2,7.73-6.15,4.37-16.53,1.13-23.18,0-.59-.15-1.21-.13-1.79.06-.86.53-1.25,1.57-.97,2.54.32.93.75,1.82,1.27,2.66,1.59,3.19,1.17,7.01,2.07,10.46,1.29,4.13,3.93,7.71,7.49,10.17,3.55,2.43,7.28,4.58,11.16,6.43.87.41,1.66.97,2.34,1.65.79,1,1.2,2.26,1.13,3.53,0,.81-1.04,3.31-.74,3.88.15.25.38.44.66.52Z"/><rect class="cls-12_data-maintenance-1-40 targetColor" x="345.56" y="255.28" width="23.39" height="115.36" transform="translate(-97.4 175.62) rotate(-24.41)" style="fill: rgb(154, 224, 211);"/><rect class="cls-2_data-maintenance-1-40" x="352.11" y="270.87" width="9.99" height="83.45" rx="4.3" ry="4.3" transform="translate(-97.27 175.52) rotate(-24.41)"/><path class="cls-11_data-maintenance-1-40" d="M377.26,273.07c.63.68,1.48,1.11,2.4,1.21.77.06,1.54.06,2.3,0h.43c.11-.01.22,0,.32.06.09.09.14.21.14.34.17,1.54.2,3.09.09,4.63h0l-.08.83c-.05.29-.03.6.08.88.22.32.56.54.94.61.67.23,1.38.35,2.09.36,1.52-.14,2.99-.66,4.26-1.5-.1-2.63.04-5.27.42-7.88.48-3.38,1.37-6.75,1-10.17,0-3.06-2.49-5.54-5.55-5.54-.27,0-.54.02-.81.06-2.43-.05-4.83.61-6.9,1.88-.63.49-1,1.25-1.02,2.05-.27,1.27-.48,2.67-.62,4.02-.18,1.54-.27,3.08-.29,4.63-.16,1.24.12,2.5.8,3.55Z"/><path class="cls-8_data-maintenance-1-40" d="M381.96,274.28h.43c.11-.01.22,0,.32.06.09.09.14.21.14.34.17,1.54.2,3.09.09,4.63h0c2.8-.9,4.58-3.65,4.27-6.57-1.68.7-3.42,1.21-5.21,1.54h-.04Z"/><path class="cls-11_data-maintenance-1-40" d="M359.83,287.39l-.43-.66c-.18-.28-.47-.6-.79-.48s-.34.56-.64.72c-.14.07-.3.09-.46.08-1.43-.07-2.86-.02-4.28.14-.87.07-1.64.61-2,1.41-.13.57-.11,1.17.08,1.73.23,1.44.83,2.8,1.73,3.95.82.78,1.79,1.4,2.85,1.82.92.35,1.77.84,2.54,1.45,1.02.67,1.77,1.68,2.76,2.39,1.21,1.05,3.04.92,4.09-.29.88-1.02.95-2.51.16-3.6l-1.51-2.33-4.09-6.33Z"/><rect class="cls-10_data-maintenance-1-40" x="373.64" y="296.51" width="39.56" height="16.81" rx="8.4" ry="8.4" transform="translate(-25.47 573.77) rotate(-70.47)"/><path class="cls-10_data-maintenance-1-40" d="M384.66,303.43l-18.51-10.08-7.13,8.1s23.32,23.51,30.18,22.58,3.98-8.21,3.98-8.21c0,0,2.59-7.86-8.52-12.38Z"/><path class="cls-9_data-maintenance-1-40" d="M383.28,261.92c1.36.61,2.91.74,4.22,1.45,1.31.71,2.33,2.42,1.54,3.69.56-.43,1.46.14,1.51.85-.03.72-.49,1.35-1.16,1.61l1.41,2.89c.1.28.28.51.52.69.24.13.52.17.79.13,1.26-.21,2.35-.98,2.97-2.1.6-1.1,1-2.3,1.18-3.55.46-2.34.75-4.7.89-7.08.13-1.16.03-2.34-.29-3.47-.52-1.3-1.41-2.43-2.54-3.25-2.44-1.97-5.53-2.93-8.66-2.7-2.31.25-6.15,1.89-6.83,4.45-.67,2.56,2.48,5.52,4.44,6.39Z"/><path class="cls-12_data-maintenance-1-40 targetColor" d="M351.24,251.18c0,12.41-10.07,22.46-22.47,22.46-12.41,0-22.46-10.07-22.46-22.47,0-5.61,2.1-11.01,5.89-15.15l4.26,9.38,4.81,10.55,16.81-7.63-4.83-10.65-4.07-8.9c12.24.2,22.06,10.17,22.07,22.41Z" style="fill: rgb(154, 224, 211);"/><path class="cls-12_data-maintenance-1-40 targetColor" d="M409.68,376.43c.03,5.45-1.94,10.72-5.53,14.81l-9.43-20.84-16.82,7.63,9.48,20.84h-.17c-12.41,0-22.48-10.05-22.49-22.46,0-12.41,10.05-22.48,22.46-22.49,12.41,0,22.48,10.05,22.49,22.46h0v.05Z" style="fill: rgb(154, 224, 211);"/></g><g id="cloud_data-maintenance-1-40"><path class="cls-10_data-maintenance-1-40" d="M361.47,156.05c.01,6.49-2.65,12.69-7.36,17.15-4.01,3.8-9.18,6.14-14.68,6.66-1.03.12-2.06.16-3.09.14l-172.33-3.51c-13.88-.27-25.11-11.44-25.11-24.96,0-6.47,2.65-12.65,7.35-17.1,4.8-4.53,11.2-6.98,17.8-6.8l5.85.11c-1.25-4.27-1.89-8.69-1.92-13.13-.01-12.78,5.23-25.01,14.51-33.81,4.09-3.86,8.82-6.99,13.98-9.24,6.64-2.9,13.84-4.32,21.09-4.16l14.65.31c18.44.34,35.25,10.62,43.95,26.88,4.22-2,8.86-2.99,13.53-2.89l3.81.08c16.45.33,29.8,13.59,29.8,29.61v1.42c0,2.7-.39,5.39-1.17,7.97l14.26.31c13.82.27,25.08,11.44,25.08,24.96Z"/><path class="cls-5_data-maintenance-1-40" d="M339.42,179.86c-1.03.12-2.06.16-3.09.14l-172.33-3.51c-13.88-.27-25.11-11.44-25.11-24.96,0-6.47,2.65-12.65,7.35-17.1-6.78,42.54,37.63,36.46,37.63,36.46h111.97l43.58,8.96Z"/><g id="Q83r0t_data-maintenance-1-40"><path class="cls-12_data-maintenance-1-40 targetColor" d="M256.96,210.54c-1.62.04-3.18-.58-4.34-1.72-.85-.81-1.65-1.69-2.54-2.54-1.6-1.7-4.1-2.18-6.22-1.21-2.17.84-3.58,2.95-3.52,5.28v3.81c-.05,3.3-2.76,5.94-6.06,5.89-.02,0-.04,0-.05,0h-7.12c-3.36.06-6.12-2.62-6.18-5.97,0-.05,0-.09,0-.14v-3.81c-.11-3.14-2.75-5.6-5.89-5.49-1.38.05-2.69.59-3.69,1.54-.86.81-1.67,1.69-2.54,2.54-2.41,2.42-6.32,2.42-8.74,0-.02-.02-.05-.05-.07-.07-1.74-1.72-3.5-3.45-5.21-5.19-2.42-2.26-2.55-6.04-.3-8.46.1-.1.19-.2.3-.3.8-.83,1.64-1.6,2.43-2.43,1.65-1.53,2.16-3.92,1.27-5.99-.74-2.17-2.79-3.63-5.09-3.62h-3.81c-3.35.09-6.14-2.55-6.23-5.9,0-.18,0-.37,0-.55v-6.75c-.09-3.23,2.41-5.94,5.63-6.12,1.27-.11,2.61,0,3.92,0,2.41.13,4.64-1.3,5.5-3.56.96-2.21.36-4.8-1.49-6.36-.78-.78-1.58-1.54-2.33-2.34-2.32-2.31-2.33-6.06-.03-8.38,0,0,.02-.02.03-.03,1.84-1.91,3.74-3.81,5.7-5.58,2.4-2.21,6.11-2.15,8.44.13.89.85,1.73,1.75,2.62,2.54,1.56,1.61,3.97,2.06,6.01,1.12,2.15-.77,3.57-2.81,3.56-5.09v-3.56c-.13-3.38,2.5-6.23,5.88-6.36.2,0,.39,0,.59,0h6.67c3.38-.13,6.23,2.51,6.35,5.89,0,.1,0,.2,0,.3v3.43c-.01,3.15,2.53,5.72,5.68,5.73,1.55,0,3.04-.62,4.12-1.73.79-.78,1.55-1.58,2.34-2.34,2.41-2.41,6.31-2.41,8.72,0,0,0,0,0,0,0,1.83,1.77,3.62,3.55,5.4,5.35,2.37,2.29,2.44,6.06.15,8.43-.05.05-.1.1-.15.15-.86.88-1.77,1.7-2.62,2.54-1.54,1.45-2.04,3.7-1.27,5.67.6,2.12,2.46,3.64,4.65,3.81,1.33.14,2.7,0,4.04.08,3.08-.2,5.73,2.13,5.93,5.21.01.2.02.39,0,.59.08,2.54.08,5.12,0,7.73.12,3.14-2.33,5.79-5.47,5.91-.22,0-.44,0-.66-.01h-3.56c-2.24.06-4.21,1.5-4.93,3.62-.89,2.02-.41,4.37,1.2,5.89.85.88,1.75,1.7,2.54,2.54,2.37,2.3,2.43,6.09.13,8.47-.04.04-.08.09-.13.13-1.77,1.82-3.57,3.6-5.38,5.38-1.11,1.15-2.62,1.83-4.22,1.87ZM211.05,172.9c-.02,10.84,8.75,19.65,19.59,19.67,10.84.02,19.65-8.75,19.67-19.59.02-10.83-8.73-19.63-19.57-19.67-10.82-.07-19.65,8.64-19.72,19.46,0,.04,0,.09,0,.13h.03Z" style="fill: rgb(154, 224, 211);"/></g><g id="Q83r0t-2_data-maintenance-1-40"><path class="cls-12_data-maintenance-1-40 targetColor" d="M322.63,218.01c-1.1.03-2.16-.39-2.94-1.16-.57-.56-1.12-1.14-1.7-1.69-1.07-1.16-2.78-1.49-4.21-.81-1.47.57-2.42,1.99-2.39,3.56v2.54c-.03,2.23-1.87,4.01-4.1,3.98-.01,0-.03,0-.04,0h-4.82c-2.27.04-4.14-1.76-4.18-4.03,0-.03,0-.07,0-.1v-2.54c0-1.55-.97-2.93-2.43-3.45-1.38-.64-3-.33-4.06.76-.58.55-1.13,1.14-1.72,1.7-1.62,1.65-4.27,1.67-5.92.05-.02-.02-.03-.03-.05-.05-1.18-1.16-2.36-2.33-3.53-3.51-1.64-1.54-1.72-4.11-.19-5.75.06-.06.12-.13.19-.19.55-.55,1.12-1.07,1.65-1.64,1.11-1.03,1.44-2.66.83-4.04-.5-1.47-1.88-2.46-3.43-2.45h-2.54c-2.27.06-4.15-1.73-4.21-4,0-.12,0-.24,0-.37v-4.58c-.06-2.19,1.63-4.02,3.81-4.14h2.66c1.63.08,3.12-.89,3.73-2.4.66-1.5.25-3.25-1-4.31-.53-.53-1.07-1.04-1.59-1.59-1.57-1.57-1.57-4.11,0-5.68,0,0,0,0,0,0,1.25-1.3,2.52-2.57,3.81-3.81,1.62-1.5,4.14-1.46,5.72.09.6.57,1.16,1.18,1.77,1.74,1.06,1.09,2.69,1.39,4.07.75,1.46-.52,2.43-1.91,2.4-3.46v-2.4c-.07-2.29,1.73-4.21,4.02-4.29.12,0,.24,0,.36,0h4.48c2.29-.1,4.22,1.68,4.32,3.96,0,.07,0,.15,0,.22v2.33c-.11,2.1,1.51,3.9,3.61,4.01,1.15.06,2.26-.4,3.03-1.25l1.59-1.58c1.62-1.63,4.25-1.64,5.88-.02,0,0,.01.01.02.02,1.27,1.2,2.45,2.4,3.65,3.62,1.6,1.54,1.65,4.09.11,5.7-.04.04-.07.08-.11.11-.57.58-1.2,1.14-1.77,1.74-1.02.98-1.36,2.49-.85,3.81.43,1.41,1.68,2.42,3.15,2.54.9.1,1.83,0,2.73,0,2.1-.12,3.91,1.49,4.03,3.59,0,.11,0,.23,0,.34.05,1.75.05,3.49,0,5.23.11,2.1-1.51,3.9-3.62,4-.18,0-.36,0-.54-.01h-2.4c-1.52.03-2.86,1.01-3.34,2.45-.6,1.36-.27,2.96.81,3.98.57.6,1.18,1.16,1.77,1.75,1.6,1.56,1.64,4.13.08,5.74-.02.03-.05.05-.08.08-1.2,1.27-2.43,2.43-3.65,3.64-.75.79-1.79,1.24-2.87,1.26ZM291.55,192.58c-.01,7.34,5.92,13.3,13.26,13.31,7.34.01,13.3-5.92,13.31-13.26.01-7.33-5.91-13.29-13.25-13.31-7.32-.04-13.29,5.87-13.32,13.2,0,0,0,.02,0,.03v.04Z" style="fill: rgb(154, 224, 211);"/></g><polygon class="cls-12_data-maintenance-1-40 targetColor" points="225.38 125.83 223.88 125.83 223.88 97.47 195.69 97.47 195.69 95.96 225.38 95.96 225.38 125.83" style="fill: rgb(154, 224, 211);"/><polygon class="cls-12_data-maintenance-1-40 targetColor" points="236.95 125.83 235.44 125.83 235.44 109.58 287.24 109.58 287.24 111.09 236.95 111.09 236.95 125.83" style="fill: rgb(154, 224, 211);"/><polygon class="cls-12_data-maintenance-1-40 targetColor" points="303.4 160.69 301.89 160.69 301.89 139.16 277.52 139.16 277.52 137.66 303.4 137.66 303.4 160.69" style="fill: rgb(154, 224, 211);"/><path class="cls-12_data-maintenance-1-40 targetColor" d="M290.36,114.22c-2.11,0-3.81-1.71-3.81-3.81s1.71-3.81,3.81-3.81,3.81,1.71,3.81,3.81c-.04,2.09-1.72,3.77-3.81,3.81ZM290.36,107.98c-1.31,0-2.36,1.06-2.36,2.36s1.06,2.36,2.36,2.36,2.36-1.06,2.36-2.36-1.06-2.36-2.36-2.36h0Z" style="fill: rgb(154, 224, 211);"/><path class="cls-12_data-maintenance-1-40 targetColor" d="M192.58,100.6c-2.11,0-3.81-1.71-3.81-3.81s1.71-3.81,3.81-3.81,3.81,1.71,3.81,3.81c-.04,2.09-1.72,3.77-3.81,3.81ZM192.58,94.36c-1.31,0-2.36,1.06-2.36,2.36s1.06,2.36,2.36,2.36,2.36-1.06,2.36-2.36-1.06-2.36-2.36-2.36h0Z" style="fill: rgb(154, 224, 211);"/><path class="cls-12_data-maintenance-1-40 targetColor" d="M274.87,142.29c-2.11,0-3.81-1.71-3.81-3.81,0-2.11,1.71-3.81,3.81-3.81,2.08,0,3.78,1.67,3.81,3.75,0,2.11-1.7,3.84-3.81,3.88ZM274.87,136.05c-1.31.04-2.34,1.12-2.3,2.43.04,1.31,1.12,2.34,2.43,2.3,1.28-.03,2.3-1.08,2.3-2.36,0-1.31-1.08-2.37-2.39-2.37-.01,0-.03,0-.04,0Z" style="fill: rgb(154, 224, 211);"/><path class="cls-6_data-maintenance-1-40" d="M182.36,132.46l-12.51-4.77c-1.23-4.25-1.86-8.66-1.88-13.08-.01-12.78,5.23-25.01,14.51-33.81,4.09-3.86,8.82-6.99,13.98-9.24-34.63,29.71-14.1,60.9-14.1,60.9Z"/></g><g id="character_1_data-maintenance-1-40"><path class="cls-10_data-maintenance-1-40" d="M115,253.43l-.17-.1.47.09h-.31Z"/><path class="cls-10_data-maintenance-1-40" d="M120.01,254.26l-4.7-.84,5.09-.29c-.25.72-.38,1.13-.38,1.13Z"/><path class="cls-10_data-maintenance-1-40" d="M143.24,189.1l-2.77,13.68-3.81,1.27-8.99,27.14c-1.7,5.03-3.36,10.07-5.01,15.12-.52,1.61-.9,4.32-2,5.64-1.09,1.32-2.43.95-3.81,1.02l-2.3.1c.09.07.19.14.29.19l-.9-.18-1.27-.22.71-1.84,18.77-49.11v-6.36l7.06-8.34,4.04,1.88Z"/><path class="cls-11_data-maintenance-1-40" d="M69.08,368.53c-1.7.77-3.22,1.91-4.44,3.33-1.02,1.53-1.56,3.33-1.54,5.17-.09,4.02,1.37,7.92,4.09,10.88.31.42.76.72,1.27.84.4.02.8-.08,1.14-.29,1.77-1.2,3.03-3.01,3.53-5.09.48-2.08,1.3-4.06,2.44-5.86,2.43-3.17,11.57-6.2,7.21-11.58-3.6-4.53-10.18.7-13.72,2.59Z"/><path class="cls-7_data-maintenance-1-40" d="M98.04,319.12c2.78,4.45,5.28,9.06,7.49,13.82,3.81,8.34,3.92,15.41-2.47,22.38-5.84,6.36-11.75,12.8-18.94,17.57-1.69,1.12-3.66,2.19-5.66,1.81-2.94-.58-4.41-4.21-3.81-7.14.6-2.94,2.7-5.33,4.62-7.63,3.28-3.9,11.91-11.85,10.17-16.87-2.39-6.7-9.41-11.7-12.93-17.8-.46-.6-.64-1.36-.5-2.1.18-.55-1.92-4.77-1.45-5.09,4.58-3.25,12.13-2.12,17.35-4.18.52-.26,1.09-.37,1.67-.33.81.27,1.48.84,1.87,1.6.84,1.28,1.7,2.6,2.59,3.97Z"/><path class="cls-12_data-maintenance-1-40 targetColor" d="M62.88,370.55s-2.54.19-3.25,1.86-2.11,15.87,6.94,20.49c9.05,4.63,1.27-12.96,1.27-12.96l-4.96-9.4Z" style="fill: rgb(154, 224, 211);"/><path class="cls-10_data-maintenance-1-40" d="M68.01,368.55c.67.52.87,1.45.46,2.2-.94,2.26-.65,4.86.78,6.85,1.75,2.11,4.97,1.7,5.57,2.89.6,1.18-1.67,10.17-3.81,11.66-2.15,1.49-5.43-.89-7.42-4.36-2-3.47-3.5-12.71-2.38-15.26,1.12-2.54,5.21-4.17,6.81-3.98Z"/><path class="cls-11_data-maintenance-1-40" d="M110.76,372.01c-.33,1.84-.27,3.72.2,5.53.67,1.72,1.85,3.19,3.38,4.22,3.25,2.36,7.29,3.38,11.28,2.84.53-.03,1.04-.24,1.44-.6.25-.32.39-.7.41-1.11.02-2.15-.76-4.23-2.2-5.82-1.43-1.58-2.59-3.38-3.42-5.34-1.27-3.81,1.47-13.04-5.42-12.52-5.81.43-5.28,8.84-5.67,12.8Z"/><path class="cls-7_data-maintenance-1-40" d="M86.6,320.11c5.23.25,10.45.83,15.61,1.72,9.06,1.58,14.9,5.56,17,14.77,1.91,8.42,3.81,16.95,3.66,25.58,0,2.02-.29,4.26-1.74,5.67-2.16,2.1-5.98,1.27-8.03-.94-2.06-2.21-2.85-5.24-3.65-8.14-1.35-4.92-2.95-16.53-8.1-17.93-8.75-2.35-17.8,3.01-26.41-.46-3.07-1.13-5.99-2.64-8.68-4.49-2.69-1.88-4.75-4.54-5.89-7.63-.5-1.63-.77-3.32-.8-5.02-.09-1.41-.03-2.82.18-4.21.29-1.6.56-1.41,2.2-1.37,2.75,0,5.49.31,8.24.62,5.48.66,10.9,1.56,16.41,1.82Z"/><path class="cls-12_data-maintenance-1-40 targetColor" d="M108.84,378.25s-1.27,2.2-.32,3.74c.95,1.54,11.84,10.77,20.8,5.96,8.96-4.81-9.94-8.4-9.94-8.4l-10.54-1.3Z" style="fill: rgb(154, 224, 211);"/><path class="cls-10_data-maintenance-1-40" d="M110.12,372.9c.81-.26,1.7.11,2.07.88,1.33,2.06,3.63,3.3,6.09,3.27,2.72-.24,4.22-3.11,5.53-2.94s7.41,7.16,7.41,9.76-3.81,3.95-7.81,3.61-12.5-4.39-13.88-6.71c-1.39-2.33-.52-6.7.58-7.87Z"/><path class="cls-10_data-maintenance-1-40" d="M108.76,287.34c-.13,2.12-.81,3.99-2.66,4.6l-.48.13c-3.39.69-7.86-1.91-10.97-4.17-1.29-.94-2.53-1.94-3.71-3.01v-22.77l16.53,16.93c.88,2.67,1.32,5.47,1.3,8.29Z"/><path class="cls-10_data-maintenance-1-40" d="M94.77,287.83c0,1.06.13,2.14.14,3.2,0,5.89-1.37,11.95.38,17.71.57,1.23.75,2.61.5,3.94-.51,1.06-1.39,1.9-2.47,2.36-5.17,2.84-11.18,3.7-17.02,4.53-4.4.62-10.64,1.92-14.71-.44-1.73-1-2.31-2.89-2.87-4.77-1.56-6.07-2.48-12.29-2.75-18.55,0-.81-.11-1.63-.17-2.44-.33-5.64-.44-11.27-.34-16.91.09-4.09.41-8.51,3.08-11.59,3.56-4.11,10.43-6.83,15.64-7.79,1.67-.34,3.39-.43,5.09-.28,2.44.39,4.8,1.19,6.97,2.36,2.54,1.27,4.88,2.36,6.17,4.92,1.39,2.96,2.36,6.1,2.89,9.33.47,3.03.52,6.1.17,9.14-.15,1.5-.55,2.97-.69,4.46.03.27.01.53.01.81Z"/><path class="cls-1_data-maintenance-1-40" d="M70.77,321.13c-1.7.51-5.63-1.06-6.94-1.27-.79-.14-1.5-.53-2.28-.72-3.89-.97-4.35-11.91-4.73-14.85-1.02-7.79-2.54-15.85-2.66-23.66-.17-3,.18-6.01,1.03-8.9.89-2.92,3.03-5.3,5.85-6.48.54-.24,1.14-.31,1.72-.19,2.38.61,2.87,4.51,3.28,6.42.61,2.91,1.65,5.92,4.18,7.72,6.15,4.39,16.53,1.13,23.18,0,.59-.16,1.22-.14,1.81.06.86.53,1.25,1.58.95,2.54-.32.93-.75,1.82-1.27,2.66-1.59,3.2-1.17,7.01-2.06,10.46-1.3,4.13-3.94,7.71-7.5,10.17-3.55,2.43-7.28,4.58-11.16,6.43-.87.41-1.66.96-2.34,1.64-.79,1-1.19,2.26-1.13,3.53,0,.81,1.04,3.31.74,3.81-.12.3-.36.52-.66.62Z"/><path class="cls-11_data-maintenance-1-40" d="M82.79,252.21c-.63.67-1.48,1.1-2.39,1.2-.77.07-1.54.07-2.31,0h-.43c-.1-.04-.22-.04-.32,0-.09.09-.14.22-.14.34-.16,1.54-.19,3.09-.09,4.64h0l.08.84c.06.29.03.59-.08.86-.22.32-.55.54-.93.62-.68.22-1.39.34-2.1.36-1.52-.15-2.98-.66-4.26-1.5.1-2.64-.04-5.28-.42-7.9-.48-3.37-1.37-6.75-1-10.17.07-1.34.56-2.63,1.39-3.69,1.37-1.29,3.21-1.95,5.09-1.81,2.43-.04,4.82.62,6.89,1.89.76.51.85,1.17,1.03,2.03.25,1.27.47,2.68.62,4.03s.25,3.08.28,4.63c.15,1.27-.17,2.56-.9,3.61Z"/><path class="cls-7_data-maintenance-1-40" d="M79.96,238.54c-.45.21-.92.35-1.41.41-1.27-.03-2.53.14-3.74.52-2.3,1.14-3.39,3.81-2.54,6.23-.66.24-.78-.95-1.27-1.44s-1.67.17-1.74.99c.08.83.36,1.63.81,2.33.63,1.46.73,3.09.31,4.62-.1.36-.37.79-.72.69s-.61-.7-.84-.97c-.35-.42-.73-.82-1.14-1.17-1.06-.93-1.42-1.61-2.99-1.41-.72.2-1.48.2-2.2,0-.69-.29-1.11-1.27-.56-1.79-1.37-.18-1.97-1.89-1.78-3.25.1-.76.35-1.5.74-2.16.28-.39.51-.82.69-1.27.13-.92.13-1.85,0-2.77.15-1.69,1.23-3.16,2.8-3.81,1.54-.61,3.2-.84,4.84-.67.29.04.59,0,.86-.13.21-.16.38-.37.5-.61,1.52-2.4,4.33-3.66,7.13-3.18,1.74.44,3.37,1.25,4.75,2.39.46.28.84.67,1.11,1.13.2.5.26,1.04.2,1.58-.05.89-.14,1.77-.28,2.64-.02.36-.19.7-.47.93-.39.23-.86,0-1.27-.1-.61-.1-1.23,0-1.78.29Z"/><path class="cls-8_data-maintenance-1-40" d="M78.04,253.46h-.43c-.1-.04-.22-.04-.32,0-.09.09-.14.22-.14.34-.16,1.54-.19,3.09-.09,4.64h0c-2.8-.9-4.59-3.65-4.27-6.57,1.68.7,3.43,1.22,5.21,1.55l.04.04Z"/><path class="cls-10_data-maintenance-1-40" d="M122.55,281.45c-2.17,3.08-4.86,5.76-7.95,7.92-2.22,1.52-4.79,2.44-7.46,2.68-.35.03-.71,0-1.04-.11-.57-.17-1.08-.51-1.44-.99-1.11-1.33-1.79-2.98-1.92-4.72-.18-4.54,4.73-7.18,4.73-7.18,0,0,11.2-3.57,12.52-2.99.74.32,1.42,1.89,1.91,3.25.39,1.14.65,2.14.65,2.14Z"/><path class="cls-1_data-maintenance-1-40" d="M122.55,281.45c-2.17,3.08-4.86,5.76-7.95,7.92-2.22,1.52-4.79,2.44-7.46,2.68-.35.03-.71,0-1.04-.11l-.48.13c-3.39.69-7.86-1.91-10.97-4.17v-.06l1.04-6.81c2.04,2.11,4.41,3.87,7.02,5.21,1.84.98,3.94,1.36,6.01,1.11.56-.09,1.1-.26,1.61-.5,4.16-1.99,8.04-4.52,11.53-7.53.43,1.14.69,2.14.69,2.14Z"/><path class="cls-12_data-maintenance-1-40 targetColor" d="M126.19,263.72c-.48,1.27-4.77,3.05-4.77,3.05l-4.06,12.6s-16.25,46.02-19.46,48.31c-1.74,1.27-5.2.5-8.49-.94-2.5-1.02-4.83-2.42-6.9-4.14-3-2.78,15.4-45.58,15.4-45.58l6.36-17.15s-1.53-2.25,0-6.94c.71-2.2,4.6-2.06,8.77-1.07,4.81,1.18,10.01,3.52,11.21,4.86,1.77,1.87,2.5,4.49,1.95,7.01Z" style="fill: rgb(154, 224, 211);"/><path class="cls-4_data-maintenance-1-40" d="M109.57,270.37c-.23,1.57-.81,3.06-1.7,4.37-.98,1.84-2.27,3.5-3.81,4.91-.8.53-1.54,1.15-2.2,1.84-.67,1.12-1.18,2.32-1.5,3.59-.95,2.46-2.85,4.42-5.28,5.45-4.2,6.99-4.48,15.55-5.9,23.58-.57,2.5-.9,5.06-.97,7.63,0,1.76.41,3.51,1.2,5.09-2.5-1.05-4.83-2.48-6.9-4.23-3-2.78,15.4-45.58,15.4-45.58l6.36-17.15s-1.53-2.25,0-6.94c.71-2.2,4.6-2.06,8.77-1.07l-.41,1.07,1.27.22-4.42.2c-.53-.02-1.05.1-1.51.34-.31.23-.55.53-.7.89-.89,2.06.65,4.41,2.54,5.66,1.89,1.25,4.13,1.86,5.86,3.32l-6.8-.7c-.24-.08-.51-.08-.75,0-.18.15-.33.34-.42.56-.24.51-.5,1-.74,1.51-.11.18-.16.39-.15.6,0,.39.51.57.85.75,1.41.85,2.16,2.47,1.92,4.09Z"/><path class="cls-11_data-maintenance-1-40" d="M100.18,266.53l.43-.66c.18-.29.47-.61.79-.5s.36.57.64.74c.14.07.3.09.46.06,1.43-.07,2.86-.02,4.28.15.87.06,1.64.6,2,1.4.13.57.11,1.17-.08,1.73-.23,1.45-.82,2.81-1.73,3.97-.83.78-1.79,1.39-2.85,1.81-.92.36-1.77.85-2.54,1.46-1.02.66-1.77,1.68-2.76,2.39-1.2,1.06-3.03.95-4.09-.24-.91-1.03-.98-2.56-.15-3.66l1.51-2.31,4.09-6.33Z"/><path class="cls-10_data-maintenance-1-40" d="M59.95,265.4h0c4.37-1.55,9.18.74,10.73,5.11l7.61,21.45c1.55,4.37-.74,9.18-5.11,10.73h0c-4.37,1.55-9.18-.74-10.73-5.11l-7.61-21.45c-1.55-4.37.74-9.18,5.11-10.73Z"/><path class="cls-10_data-maintenance-1-40" d="M75.35,282.57l18.51-10.09,7.14,8.16s-23.3,23.44-30.19,22.52c-6.89-.93-3.98-8.23-3.98-8.23,0,0-2.59-7.84,8.52-12.36Z"/><path class="cls-11_data-maintenance-1-40" d="M118.69,270.2c-1.31,1.01-1.82,2.74-1.27,4.3.09.48.24.94.46,1.37.32.51.72.96,1.18,1.35l1.07.97c.12.14.27.24.44.31.37.08.75-.08.94-.41.18-.32.29-.68.33-1.04.32-1.93,1.47-5.09.93-7.01-.7-2.28-3.04-1.02-4.08.17Z"/></g></svg>