<svg version="1.1" id="Layer_1" xmlns="http://www.w3.org/2000/svg" xmlns:xlink="http://www.w3.org/1999/xlink" x="0px" y="0px" viewBox="0 0 500 500" style="width: 186px;" xml:space="preserve" data-imageid="note-taking-80" imageName="Note Taking" class="illustrations_image">
<style type="text/css">
	.st0_note-taking-80{fill:#68E1FD;}
	.st1_note-taking-80{fill:#093F68;}
	.st2_note-taking-80{fill:#FFFFFF;}
	.st3_note-taking-80{fill:#DFEAEF;}
	.st4_note-taking-80{fill:#FFC9B0;}
	.st5_note-taking-80{fill:#F56132;}
	.st6_note-taking-80{fill:#FFBC0E;}
</style>
<g id="book_note-taking-80">
	<rect x="24.5" y="152.6" class="st0_note-taking-80 targetColor" width="411.9" height="202.2" style="fill: rgb(154, 224, 211);"/>
	<path class="st1_note-taking-80" d="M436.4,356.8H24.5c-1,0-1.9-0.8-1.9-1.9V152.6c0-1,0.8-1.9,1.8-1.9c0,0,0,0,0,0h411.8c1,0,1.9,0.8,1.9,1.8v0&#10;&#9;&#9;v202.2C438.2,355.9,437.4,356.8,436.4,356.8C436.4,356.8,436.4,356.8,436.4,356.8z M26.4,353.1h408.1V154.5H26.4L26.4,353.1z"/>
	<rect x="40.9" y="152.6" class="st1_note-taking-80" width="184.1" height="188"/>
	<path class="st1_note-taking-80" d="M225,342.5H40.9c-1,0-1.9-0.8-1.9-1.9v-188c0-1,0.8-1.9,1.8-1.9c0,0,0,0,0,0H225c1,0,1.9,0.8,1.9,1.8&#10;&#9;&#9;c0,0,0,0,0,0v188C226.9,341.7,226,342.5,225,342.5z M42.8,338.8h180.4V154.5H42.8V338.8z"/>
	<rect x="239.8" y="152.6" class="st1_note-taking-80" width="184.1" height="188"/>
	<path class="st1_note-taking-80" d="M423.9,342.5H239.8c-1,0-1.9-0.8-1.9-1.8c0,0,0,0,0,0v-188c0-1,0.8-1.9,1.8-1.9h0h184.1c1,0,1.9,0.8,1.9,1.8&#10;&#9;&#9;c0,0,0,0,0,0v188C425.8,341.7,424.9,342.5,423.9,342.5z M241.7,338.8H422V154.5H241.7V338.8z"/>
	<rect x="40.9" y="142.7" class="st2_note-taking-80" width="184.1" height="188"/>
	<path class="st1_note-taking-80" d="M225,332.6H40.9c-1,0-1.9-0.8-1.9-1.9v-188c0-1,0.8-1.9,1.8-1.9c0,0,0,0,0,0H225c1,0,1.9,0.8,1.9,1.8&#10;&#9;&#9;c0,0,0,0,0,0v188C226.9,331.7,226,332.6,225,332.6z M42.8,328.9h180.4V144.6H42.8V328.9z"/>
	<rect x="239.8" y="142.7" class="st2_note-taking-80" width="184.1" height="188"/>
	<path class="st1_note-taking-80" d="M423.9,332.6H239.8c-1,0-1.9-0.8-1.9-1.8c0,0,0,0,0,0v-188c0-1,0.8-1.9,1.8-1.9h0h184.1c1,0,1.9,0.8,1.9,1.8&#10;&#9;&#9;c0,0,0,0,0,0v188C425.8,331.7,424.9,332.6,423.9,332.6z M241.7,328.9H422V144.6H241.7V328.9z"/>
	<path class="st1_note-taking-80" d="M254.8,313.3c-0.7,0-1.4-0.4-1.7-1.1c-3.8-8.6-12.7-14.1-22.7-14.1s-18.9,5.5-22.7,14.1&#10;&#9;&#9;c-0.5,0.9-1.6,1.3-2.5,0.8c-0.9-0.4-1.3-1.4-0.9-2.3c4.4-9.9,14.6-16.3,26.1-16.3s21.7,6.4,26.1,16.3c0.4,0.9,0,2-1,2.4&#10;&#9;&#9;c0,0,0,0,0,0C255.3,313.3,255.1,313.3,254.8,313.3z"/>
	<path class="st1_note-taking-80" d="M254.8,286.5c-0.7,0-1.4-0.4-1.7-1.1c-3.8-8.6-12.7-14.1-22.7-14.1s-18.9,5.5-22.7,14.1&#10;&#9;&#9;c-0.5,0.9-1.6,1.3-2.5,0.8c-0.9-0.4-1.3-1.4-0.9-2.3c4.4-9.9,14.6-16.3,26.1-16.3s21.7,6.4,26.1,16.3c0.4,0.9,0,2-1,2.4&#10;&#9;&#9;c0,0,0,0,0,0C255.3,286.4,255.1,286.5,254.8,286.5z"/>
	<path class="st1_note-taking-80" d="M254.8,259.7c-0.7,0-1.4-0.4-1.7-1.1c-3.8-8.6-12.7-14.1-22.7-14.1s-18.9,5.5-22.7,14.1&#10;&#9;&#9;c-0.5,0.9-1.6,1.3-2.5,0.8c-0.9-0.4-1.3-1.4-0.9-2.3c4.4-9.9,14.6-16.3,26.1-16.3s21.7,6.4,26.1,16.3c0.4,1,0,2-1,2.4c0,0,0,0,0,0&#10;&#9;&#9;C255.3,259.6,255.1,259.7,254.8,259.7z"/>
	<path class="st1_note-taking-80" d="M254.8,232.8c-0.7,0-1.4-0.4-1.7-1.1c-3.8-8.6-12.7-14.1-22.7-14.1s-18.9,5.5-22.7,14.1&#10;&#9;&#9;c-0.4,0.9-1.5,1.4-2.5,0.9c-0.9-0.4-1.4-1.5-0.9-2.5c4.4-9.9,14.6-16.3,26.1-16.3s21.7,6.4,26.1,16.3c0.4,0.9,0,2-1,2.4&#10;&#9;&#9;c0,0,0,0,0,0C255.3,232.8,255.1,232.8,254.8,232.8z"/>
	<path class="st1_note-taking-80" d="M254.8,206c-0.7,0-1.4-0.4-1.7-1.1c-3.8-8.6-12.7-14.1-22.7-14.1s-18.9,5.5-22.7,14.1&#10;&#9;&#9;c-0.5,0.9-1.6,1.3-2.5,0.8c-0.9-0.4-1.3-1.4-0.9-2.3c4.4-9.9,14.6-16.3,26.1-16.3s21.7,6.4,26.1,16.3c0.4,0.9,0,2-1,2.4&#10;&#9;&#9;c0,0,0,0,0,0C255.3,205.9,255.1,206,254.8,206z"/>
	<path class="st1_note-taking-80" d="M254.8,179.2c-0.7,0-1.4-0.4-1.7-1.1c-3.8-8.6-12.7-14.1-22.7-14.1s-18.9,5.5-22.7,14.1&#10;&#9;&#9;c-0.5,0.9-1.6,1.3-2.5,0.8c-0.9-0.4-1.3-1.4-0.9-2.3c4.4-9.9,14.6-16.3,26.1-16.3s21.7,6.4,26.1,16.3c0.4,0.9,0,2-1,2.4&#10;&#9;&#9;c0,0,0,0,0,0C255.3,179.1,255.1,179.2,254.8,179.2z"/>
</g>
<g id="lines_note-taking-80">
	<path class="st3_note-taking-80" d="M133.7,276.9c-19.9,0-36.1-16.1-36.1-36.1s16.1-36.1,36.1-36.1s36.1,16.1,36.1,36.1l0,0&#10;&#9;&#9;C169.8,260.7,153.6,276.9,133.7,276.9z M133.7,208.5c-17.9,0-32.4,14.5-32.4,32.4s14.5,32.4,32.4,32.4s32.4-14.5,32.4-32.4l0,0&#10;&#9;&#9;C166.1,223,151.6,208.5,133.7,208.5z"/>
	<path class="st3_note-taking-80" d="M341.6,247.1h-62.8c-1,0-1.9-0.8-1.9-1.8c0,0,0,0,0,0v-62.8c0-1,0.8-1.9,1.8-1.9c0,0,0,0,0,0h62.8&#10;&#9;&#9;c1,0,1.9,0.8,1.9,1.9v62.8C343.5,246.3,342.6,247.1,341.6,247.1z M280.6,243.4h59.1v-59.1h-59.1V243.4z"/>
	<path class="st3_note-taking-80" d="M387.4,266.1h-57.3c-1,0-1.9-0.8-1.9-1.9v-65.6c0-1,0.8-1.9,1.8-1.9c0,0,0,0,0,0h57.3c1,0,1.9,0.8,1.9,1.8v0&#10;&#9;&#9;v65.6C389.2,265.3,388.4,266.1,387.4,266.1C387.4,266.1,387.4,266.1,387.4,266.1z M332,262.4h53.6v-61.9H332V262.4z"/>
	<path class="st3_note-taking-80" d="M290.7,286.9c-0.2,0-0.4,0-0.6-0.1c-1-0.3-1.5-1.4-1.2-2.3c0,0,0,0,0,0c7.5-22.5,19.6-31.7,20.2-32.1&#10;&#9;&#9;c0.8-0.6,2-0.4,2.6,0.4c0.6,0.8,0.4,2-0.4,2.6l0,0c-0.1,0.1-11.7,9.1-18.9,30.3C292.2,286.4,291.5,286.9,290.7,286.9z"/>
	<path class="st3_note-taking-80" d="M315.3,298.1h-36.5c-1,0-1.9-0.8-1.9-1.9c0-1,0.8-1.9,1.9-1.9h36.5c1,0,1.9,0.8,1.9,1.9&#10;&#9;&#9;C317.1,297.3,316.3,298.1,315.3,298.1z"/>
	<path class="st3_note-taking-80" d="M300.5,309.3h-21.7c-1-0.1-1.8-1-1.7-2c0.1-0.9,0.8-1.7,1.7-1.7h21.7c1,0.1,1.8,1,1.7,2&#10;&#9;&#9;C302.2,308.5,301.4,309.3,300.5,309.3z"/>
	<path class="st3_note-taking-80" d="M402.3,163.9h-28.6c-1,0.1-1.9-0.7-2-1.7c-0.1-1,0.7-1.9,1.7-2c0.1,0,0.2,0,0.3,0h28.6c1,0.1,1.8,1,1.7,2&#10;&#9;&#9;C403.9,163.1,403.2,163.9,402.3,163.9L402.3,163.9z"/>
	<path class="st3_note-taking-80" d="M388,174.7h-14.3c-1,0.1-1.9-0.7-2-1.7c-0.1-1,0.7-1.9,1.7-2c0.1,0,0.2,0,0.3,0H388c1-0.1,1.9,0.7,2,1.7&#10;&#9;&#9;c0.1,1-0.7,1.9-1.7,2C388.2,174.7,388.1,174.7,388,174.7z"/>
	<path class="st3_note-taking-80" d="M329.4,174.7c-1,0-1.9-0.8-1.9-1.9c0-0.5,0.2-1,0.6-1.4c0.6-0.6,15.5-14.1,31.3-7c0.9,0.5,1.3,1.6,0.8,2.5&#10;&#9;&#9;c-0.4,0.8-1.4,1.2-2.3,0.9c-13.6-6.1-27.2,6.2-27.3,6.4C330.4,174.5,329.9,174.7,329.4,174.7z"/>
	<path class="st3_note-taking-80" d="M363.6,309.3h-22c-1,0-1.9-0.8-1.9-1.8c0,0,0,0,0,0v-14.7c0-1,0.8-1.9,1.9-1.9h22c1,0,1.9,0.8,1.9,1.9v14.7&#10;&#9;&#9;C365.5,308.5,364.7,309.3,363.6,309.3C363.6,309.3,363.6,309.3,363.6,309.3z M343.5,305.6h18.3v-11h-18.3V305.6z"/>
	<path class="st3_note-taking-80" d="M185.4,162.2h-39.6c-1,0-1.9-0.8-1.9-1.9s0.8-1.9,1.9-1.9h39.6c1,0,1.9,0.8,1.9,1.9S186.4,162.2,185.4,162.2z"/>
	<path class="st3_note-taking-80" d="M185.4,175.8h-39.6c-1-0.1-1.8-1-1.7-2c0.1-0.9,0.8-1.7,1.7-1.7h39.6c1-0.1,1.9,0.7,2,1.7c0.1,1-0.7,1.9-1.7,2&#10;&#9;&#9;C185.6,175.8,185.5,175.8,185.4,175.8z"/>
	<path class="st3_note-taking-80" d="M171.2,189.4h-25.5c-1-0.1-1.8-1-1.7-2c0.1-0.9,0.8-1.7,1.7-1.7h25.5c1-0.1,1.9,0.7,2,1.7c0.1,1-0.7,1.9-1.7,2&#10;&#9;&#9;C171.4,189.4,171.3,189.4,171.2,189.4z"/>
	<path class="st3_note-taking-80" d="M119.8,317H59.6c-1,0-1.9-0.8-1.9-1.8c0,0,0,0,0,0V289c0-1,0.8-1.9,1.9-1.9h60.2c1,0,1.9,0.8,1.9,1.9v26.1&#10;&#9;&#9;C121.7,316.1,120.9,317,119.8,317C119.9,317,119.9,317,119.8,317z M61.4,313.3H118v-22.4H61.4V313.3z"/>
	<path class="st3_note-taking-80" d="M82.2,281c-1,0-1.9-0.8-1.9-1.8c0-0.4,0.1-0.8,0.4-1.2c5.7-7.5,12.3-14.1,19.8-19.8c0.8-0.6,2-0.4,2.6,0.4&#10;&#9;&#9;c0.6,0.8,0.4,2-0.4,2.6c-7.1,5.5-13.5,11.9-19,19C83.4,280.7,82.8,281,82.2,281z"/>
	<path class="st3_note-taking-80" d="M94.3,187.7H63.5c-1-0.1-1.8-1-1.7-2c0.1-0.9,0.8-1.7,1.7-1.7h30.9c1,0.1,1.8,1,1.7,2&#10;&#9;&#9;C96,186.9,95.2,187.7,94.3,187.7z"/>
	<path class="st3_note-taking-80" d="M94.3,201.1H63.5c-1-0.1-1.8-1-1.7-2c0.1-0.9,0.8-1.7,1.7-1.7h30.9c1,0.1,1.8,1,1.7,2&#10;&#9;&#9;C96,200.3,95.2,201,94.3,201.1z"/>
	<path class="st3_note-taking-80" d="M94.3,214.5h-9.7c-1,0-1.9-0.8-1.9-1.9s0.8-1.9,1.9-1.9h9.7c1,0,1.9,0.8,1.9,1.9S95.4,214.5,94.3,214.5z"/>
	<path class="st3_note-taking-80" d="M73.2,214.5h-9.7c-1,0-1.9-0.8-1.9-1.9s0.8-1.9,1.9-1.9l0,0h9.7c1,0,1.9,0.8,1.9,1.9S74.2,214.5,73.2,214.5z"/>
	<path class="st3_note-taking-80" d="M165.6,215.7c-1,0-1.9-0.8-1.9-1.8c0-0.8,0.5-1.5,1.3-1.8c0.6-0.2,13.2-4.7,15.8-20.9c0.2-1,1.2-1.7,2.2-1.4&#10;&#9;&#9;c0.9,0.2,1.6,1.1,1.5,2c-2.9,18.5-17.6,23.6-18.3,23.8C166,215.7,165.8,215.7,165.6,215.7z"/>
	<path class="st3_note-taking-80" d="M184.1,275.2c-3.1-1.5-6.9-0.9-9.4,1.5c-1.8,1.8,1,4.6,2.8,2.8c1.6-1.6,4.2-1.6,5.8-0.1c0,0,0,0,0.1,0.1&#10;&#9;&#9;c1.4,1.8,1.2,4.4-0.5,5.8c-1.1,0.9-2.2,1.6-3.4,2.3c-1.3,0.8-2.4,1.9-3.3,3.1c-1.8,2.7-2.4,6-1.6,9.1c0.6,2.5,4.4,1.4,3.8-1.1&#10;&#9;&#9;c-0.7-3.1,0.7-6.3,3.4-7.9c2.8-1.9,5.9-3.6,6.4-7.3C188.7,280.3,187.1,276.9,184.1,275.2z"/>
	<path class="st3_note-taking-80" d="M176.7,305.3c-2.6,0-2.6,4,0,4S179.3,305.3,176.7,305.3z"/>
</g>
<g id="hand_note-taking-80">
	<path class="st4_note-taking-80" d="M475.5,355.6c-0.3-1.3-33.4-136.5-37.9-142.5c-12.3-16.4-51.1-16.8-58-14.9s-52.7,25.1-55,27.1&#10;&#9;&#9;c-5.5,4.7-6.6,16.5,7.5,16.1c5.1,3.6,10,7.4,14.7,11.6c8.6,7.5,9.5,10,9.5,10s21.4,20.3,30.6,26.2c0,0-5.7,13.5,0.5,19.7&#10;&#9;&#9;s14.9,10,14.9,10l8.9,38.4L475.5,355.6z"/>
	<path class="st1_note-taking-80" d="M411.1,359.1c-0.9,0-1.6-0.6-1.8-1.4l-8.7-37.5c-5.3-2.6-10.2-6-14.5-10c-5.8-5.7-2.8-16.4-1.4-20.2&#10;&#9;&#9;c-9.8-6.7-28.8-24.8-29.6-25.6c-0.2-0.2-0.4-0.4-0.5-0.7c0,0-1.2-2.5-9-9.3c-4.5-3.9-9.2-7.6-14.1-11.1h-0.2&#10;&#9;&#9;c-8.1,0-10.8-3.9-11.7-6.3c-1.6-4.2,0-9.8,3.8-13.1c2.9-2.4,48.8-25.5,55.7-27.4c3.7-1,15.4-1.4,27.8,0.5&#10;&#9;&#9;c10.9,1.7,25.2,5.7,32.2,15c4.9,6.5,38,141.9,38.3,143.2c0.2,1-0.4,2-1.4,2.2c-0.1,0-0.2,0-0.3,0L411.1,359.1L411.1,359.1z&#10;&#9;&#9; M357.9,261.9c2.4,2.2,21.6,20.4,30.1,25.8c0.8,0.5,1.1,1.4,0.7,2.3c-1.5,3.4-4.2,13.3,0.1,17.6c5.9,5.8,14.2,9.6,14.3,9.7&#10;&#9;&#9;c0.5,0.2,0.9,0.7,1,1.3l8.5,36.9l60.5-1.6c-4.4-18.3-33.2-134-37.1-139.5c-11.9-15.9-50.2-15.9-56-14.2c-7,2-51.9,24.8-54.3,26.7&#10;&#9;&#9;c-2.5,2.2-3.8,6.1-2.7,8.9c1.3,3.4,5.6,4,9,3.9c0.4,0,0.8,0.1,1.1,0.3c5.2,3.6,10.2,7.5,14.9,11.7&#10;&#9;&#9;C355.1,257.7,357.2,260.7,357.9,261.9z"/>
	<path class="st5_note-taking-80" d="M341.9,249.2l-3.7-19.2l122.7-24.5c4.3-0.8,8.5,2,9.3,6.3l0.7,3.6c0.8,4.3-2,8.5-6.3,9.3c0,0,0,0,0,0&#10;&#9;&#9;L341.9,249.2z"/>
	<path class="st1_note-taking-80" d="M341.9,251c-0.9,0-1.6-0.6-1.8-1.5l-3.7-19.2c-0.2-1,0.5-2,1.5-2.2l122.7-24.5c5.3-1.1,10.5,2.4,11.5,7.7&#10;&#9;&#9;c0,0,0,0.1,0,0.1l0.7,3.6c1,5.3-2.4,10.4-7.7,11.5c0,0,0,0,0,0L342.2,251C342.1,251,342,251,341.9,251z M340.3,231.4l3,15.5&#10;&#9;&#9;l120.9-24.1c3.3-0.6,5.4-3.8,4.8-7.1l-0.7-3.6c-0.6-3.3-3.8-5.4-7.1-4.8c0,0,0,0,0,0L340.3,231.4z"/>
	<polygon class="st6_note-taking-80" points="341.9,249.2 315.3,247.1 305.2,246.4 314.3,241.9 338.1,230 &#9;"/>
	<path class="st1_note-taking-80" d="M341.9,251h-0.1l-36.6-2.8c-1-0.1-1.8-1-1.7-2c0-0.7,0.4-1.2,1-1.5l32.9-16.4c0.9-0.5,2-0.1,2.5,0.8&#10;&#9;&#9;c0.1,0.1,0.1,0.3,0.2,0.5l3.7,19.2c0.2,1-0.5,2-1.5,2.2C342.1,251,342,251,341.9,251L341.9,251z M312.1,245l27.5,2.1l-2.8-14.4&#10;&#9;&#9;L312.1,245z"/>
	<polygon class="st1_note-taking-80" points="315.3,247.1 305.2,246.4 314.3,241.9 &#9;"/>
	<path class="st1_note-taking-80" d="M315.3,249h-0.1l-10-0.8c-1-0.1-1.8-1-1.7-2c0-0.7,0.4-1.2,1-1.5l9-4.5c0.9-0.5,2-0.1,2.5,0.8&#10;&#9;&#9;c0.1,0.2,0.1,0.3,0.2,0.5l1,5.3c0.2,1-0.5,2-1.5,2.2C315.5,249,315.4,249,315.3,249L315.3,249z M312.1,245l0.9,0.1l-0.1-0.5&#10;&#9;&#9;L312.1,245z"/>
	<path class="st4_note-taking-80" d="M393.7,251.6c0,0-55-19.8-60.2-15.4s-6.4,9.8,3.1,20.4c9.5,10.6,34,21.5,34,21.5s-9.8,30.6,31.7,40.8"/>
	<path class="st1_note-taking-80" d="M402.3,320.7c-0.2,0-0.3,0-0.5,0c-14.8-3.7-25-10.3-30.3-19.7c-3.7-6.7-4.8-14.5-3.2-21.9&#10;&#9;&#9;c-5.5-2.5-24.8-11.9-33.2-21.3c-5.5-6.1-7.9-10.9-7.6-15c0.2-2.9,1.7-5.5,4.7-8c5.5-4.6,45.3,9,62.1,15c1,0.3,1.6,1.3,1.3,2.3&#10;&#9;&#9;c-0.3,1-1.3,1.6-2.3,1.3c-0.1,0-0.2-0.1-0.2-0.1c-25.4-9.2-55-17.8-58.5-15.6c-2.2,1.8-3.2,3.5-3.3,5.4c-0.2,3.1,1.9,7.1,6.6,12.3&#10;&#9;&#9;c9.1,10.2,33.2,20.9,33.4,21c0.9,0.4,1.3,1.4,1,2.3c-1.8,7-0.9,14.3,2.5,20.6c4.7,8.4,14.1,14.4,27.9,17.8c1,0.2,1.6,1.2,1.4,2.2&#10;&#9;&#9;C403.9,320.1,403.1,320.7,402.3,320.7L402.3,320.7z"/>
</g>
</svg>